<!DOCTYPE svg PUBLIC "-//W3C//DTD SVG 1.1//EN" "http://www.w3.org/Graphics/SVG/1.1/DTD/svg11.dtd">

<!-- Uploaded to: SVG Repo, www.svgrepo.com, Transformed by: SVG Repo Mixer Tools -->
<svg version="1.1" id="Layer_1" xmlns="http://www.w3.org/2000/svg" xmlns:xlink="http://www.w3.org/1999/xlink" viewBox="0 0 505 505" xml:space="preserve" width="800px" height="800px" fill="#000000">

<g id="SVGRepo_bgCarrier" stroke-width="0"/>

<g id="SVGRepo_tracerCarrier" stroke-linecap="round" stroke-linejoin="round"/>

<g id="SVGRepo_iconCarrier"> <circle style="fill:#1095c1;" cx="252.5" cy="252.5" r="252.5"/> <path style="fill:#EDF2F2;" d="M198.9,204.1v-60c0-29.8,24.3-54.1,54.1-54.1s54.1,24.3,54.1,54.1v60h24v-60c0-43-35-78-78-78 s-78,35-78,78v60H198.9z"/> <path style="fill:#ffd05b;" d="M347,198.1H158c-7.1,0-12.8,5.4-12.8,12.1v170.2c0,6.7,5.7,12.1,12.8,12.1h189 c7.1,0,12.8-5.4,12.8-12.1V210.2C359.9,203.5,354.1,198.1,347,198.1z"/> <rect x="164.9" y="266" style="fill:#EDF2F2;" width="175.3" height="58.7"/> <g> <path style="fill:#395767;" d="M213,295.4l-7.4,1l5.3,5.7l-4.9,3.4l-3.7-6.8l-3.7,6.8l-4.9-3.4l5.3-5.7l-7.4-1l1.9-5.4l6.8,2.9 l-1.2-7.7h6.3l-1.2,7.7l6.7-2.9L213,295.4z"/> <path style="fill:#395767;" d="M238.1,295.4l-7.4,1l5.3,5.7l-4.9,3.4l-3.7-6.8l-3.7,6.8l-4.9-3.4l5.3-5.7l-7.4-1l1.9-5.4l6.8,2.9 l-1.2-7.7h6.3l-1.2,7.7l6.7-2.9L238.1,295.4z"/> <path style="fill:#395767;" d="M263.2,295.4l-7.4,1l5.3,5.7l-4.9,3.4l-3.7-6.8l-3.7,6.8l-4.9-3.4l5.3-5.7l-7.4-1l1.9-5.4l6.8,2.9 l-1.2-7.7h6.3l-1.2,7.7l6.7-2.9L263.2,295.4z"/> <path style="fill:#395767;" d="M288.2,295.4l-7.4,1l5.3,5.7l-4.9,3.4l-3.7-6.8l-3.7,6.8l-4.9-3.4l5.3-5.7l-7.4-1l1.9-5.4l6.8,2.9 l-1.2-7.7h6.3l-1.2,7.7l6.7-2.9L288.2,295.4z"/> <path style="fill:#395767;" d="M313.3,295.4l-7.4,1l5.3,5.7l-4.9,3.4l-3.7-6.8l-3.7,6.8l-4.9-3.4l5.3-5.7l-7.4-1l1.9-5.4l6.8,2.9 l-1.2-7.7h6.3l-1.2,7.7l6.7-2.9L313.3,295.4z"/> </g> </g>

</svg>